M48
;Layer_Color=9474304
;FILE_FORMAT=2:3
INCH,LZ
;TYPE=PLATED
T1F00S00C0.015
T2F00S00C0.030
T3F00S00C0.031
T4F00S00C0.035
T5F00S00C0.045
T6F00S00C0.067
;TYPE=NON_PLATED
T7F00S00C0.100
%
T01
X003Y003
X008
X0105
X013
X018
X0205
X023
X028
X0305Y0055
X033
X0355
X03805Y003
X04305Y00295
X048Y003
X053
Y008
X048
X0455
X043
X0427Y0105
X043Y013
X04175Y0155
X04125
X043Y018
X0455
X048
Y013
X053
Y018
Y021
X038Y018
X0395Y0154
X03775Y013
X0365Y0105
X03405
X033Y013
Y018
X0305
Y02015
X028Y018
X0255Y02
Y0205
X028Y013
Y008
X0255Y0105
X04
X041
X0405Y011
Y0083
X038Y008
X023
X0205Y0085
Y009
X018Y0079
X0155Y00855
X01575Y0105
X01475
X01525Y011
X01365Y0104
X013Y008
X01275Y013
X0105
X014Y0155
X0155Y01445
X018Y013
Y018
X0205
X023
Y02075
X02355
X0239Y02175
X023
Y013
X013Y018
X008
X0055
X003
Y013
X008
Y008
X0055
X003
X00475Y0225
X00725
X0061Y024
X00945Y02895
X00875Y02975
X0088Y033
X0075Y03205
X00385Y034
X00415Y03505
X0045Y03545
X01055Y0337
X0119Y03475
X01325Y03325
X01295Y03265
X016Y03345
X0171Y0313
X01685Y0304
Y0299
X0168Y0294
X0189Y02885
X01935Y02915
X01825Y02795
X0187Y027
X0176Y0263
X01695
X01495Y0257
X01535Y02525
X01425Y0253
X01375
X01372Y02953
X0144Y02995
X01535Y0307
X01925Y03155
X0189Y0322
Y03267
X02045Y0337
X02059Y0315
X0225Y0324
X0229Y03375
X0237Y03305
X02425Y0365
X0183Y03695
X0177Y0365
X01738Y03585
X017
X0183Y03575
Y03805
X01425Y03775
X015Y03595
X01055Y0305
X011Y02875
X0205Y02775
X02363Y02862
X02355Y0225
X02425
X0212Y0228
X02695Y0292
X0275Y029
X02695Y0313
X03075Y0315
X03165
Y03275
X03075
Y034
X03165
X02975Y0345
Y0375
X03075
Y03025
X03165
Y029
X03075
Y02775
X03165
X0349
X03875Y0273
X03975
X0405Y024
X038
X033
X03925Y03225
X03875Y0336
X03975
X04025Y0355
X04075Y036
X03845Y0362
X0412Y0326
X04275Y0273
X043Y024
X048
X0505
X053
X0525Y027
X0515
X05175Y0288
X0509Y02965
X0496
Y02885
X0488Y03035
X04925Y0332
X04825Y0333
X0503Y0331
X04975Y035
X054Y0322
X0547Y03045
X0535Y02945
X04635Y0277
X0412Y0386
X04125Y04175
X04175Y04445
X0425Y046
X038
X03825Y04225
X0361Y0425
X035Y03955
X031Y04005
X0311Y0383
X029Y0409
X02795Y0417
X0279Y0422
X02775Y0435
X02605
Y0448
X026Y0416
X027Y03945
X0267Y03885
X02925Y0441
X03295Y04425
X0315Y04655
X03095Y0465
X0243Y0418
X0229Y04185
X02125Y0422
X0208Y04255
X01925Y04225
X0177Y0419
X017Y0425
X0164
X01547Y04197
X015Y0415
X01547Y04103
X01453
Y04197
X01345Y0417
Y04045
X01295Y03915
X01125Y0423
X01115Y04385
Y04485
X01195Y0443
X01135Y0461
X01475Y0463
X01575
X01725Y04585
X0181Y04655
X01755Y0471
X01525Y0445
X01445
X01395Y04485
X01485Y044
X01865Y0405
X01985Y0407
X0075Y0405
X0068Y0423
X00675Y0443
X00685Y0454
X00655Y0466
X0085Y04655
X0095
X0051Y046
X00425
X005Y0443
X0042Y0432
X00417Y04123
X00295Y04445
X00125Y04575
T02
X00325Y0255
Y0265
Y0275
Y0285
Y0295
Y0305
Y0315
Y0325
Y0335
Y0345
Y0355
Y0365
X02825
Y0355
Y0345
Y0335
Y0325
Y0315
Y0305
Y0295
Y0285
Y0275
Y0265
Y0255
X03425Y045
X03525
X03625
T03
X03946Y0465
X04025
X04104
T04
X03575Y03025
X03675
X03775
X03875
X03975
X04075
Y03125
X03975
X03875
X03775
X03675
X03575
X04175
Y03025
X04275
X04375
X04475
Y03125
X04375
X04275
T05
X04325Y03735
X05485
Y044
X04325
T06
X02275Y04325
X02472
T07
X05485Y03455
X04325Y0468
M30
