M48
;Layer_Color=9474304
;FILE_FORMAT=2:5
INCH,LZ
;TYPE=PLATED
T1F00S00C0.01299
T2F00S00C0.01500
T3F00S00C0.03000
T4F00S00C0.03500
T5F00S00C0.06693
;TYPE=NON_PLATED
T6F00S00C0.10630
%
T01
X0145276Y0410276
Y0415
Y0419724
X015
X0154724
Y0415
Y0410276
X015
T02
X003Y003
X008
X0105
X013
X018
X0205
X023
X028
X0305Y0055
X033
X0355
X03805Y003
X04305Y00295
X048Y003
X053
Y008
Y013
Y018
Y021
X048Y018
X0455
X043
X04175Y0155
X04125
X043Y013
X0426988Y0105
X043Y008
X0455
X048
Y013
X0405Y011
X04Y0105
X0405Y01
X041Y0105
X0405Y0083012
X038Y008
X0365Y0105
X03405
X033Y013
X03775
X0395Y0154
X038Y018
X033
X0305
Y02015
X028Y018
X0255Y02
Y0205
Y0105
X028Y008
Y013
X023
X018
X0155Y01445
X014Y0155
X013Y018
X018
X0205
X023
Y02075
X02355
X0239Y02175
X023
Y008
X0205Y0085
Y009
X018Y0079
X0155Y0085512
X01525Y01
X01575Y0105
X01525Y011
X01475Y0105
X01365Y0104
X013Y008
X01275Y013
X0105
X008
Y008
X0055
X003
Y013
Y018
X0055
X008
X00725Y0225
X00475
X0061Y024
X0088Y02725
X00875Y02975
X0088Y033
X0075Y03205
X00385Y034
X00415Y03505
X0045Y03545
X01055Y0337
X0119Y03475
X01325Y03325
X01295Y03265
X01405Y0317
X0144Y02995
X01575Y0307
X01605Y03105
X0171Y0313
X01685Y0304
Y0299
X0168Y0294
X018Y0285
X01825Y02795
X0187Y027
X0176Y0263
X01695
X01575Y0253
X01425
X01495Y02705
X011Y02875
X01055Y0305
X01475Y0335
X01535Y03375
X01585
X015Y03595
X017Y03585
X01738
X0177Y0365
X0183Y03575
X0189Y0326674
Y0322
X01925Y03155
X0205913Y0315
X02045Y0337
X0229Y03375
X0237Y03305
X0225Y0324
X02175Y03
X0192Y03015
X01935Y02915
X0189Y02885
X0213Y02745
X0212Y0228
X02355Y0225
X02425
Y0365
X01425Y03775
X02695Y0313
Y0292
X03Y03405
X0363Y0314
X04075Y0336
X0405Y024
X038
X033
X043
X04375Y0273
X048Y024
X0505
X053
X05085Y034
X05015
X0497Y03455
X0498Y0374
X0517
X04745Y03795
X04625Y03695
X04365Y03715
X04335Y03625
X0437Y03525
X04525Y0345
X04135Y03525
X04155Y03785
X04235Y03715
X0442Y0407
X0441Y0418
X044Y04345
Y04455
X0415Y043
X0475Y0415
X04745Y03905
X05075Y03855
Y04455
X04075Y0412
X03675Y0392
X03275Y03925
X0327Y04075
X0315Y04275
X02955
X0279Y0422
X02795Y0417
X029Y0409
X027Y03945
X0267Y03885
X026Y0416
X0255Y0427
X02605Y0448
X02775Y0435
X03Y0446
X035Y04345
X0243Y0418
X0229Y04185
X02125Y0422
X0208Y04255
X01925Y04225
X0177Y0419
X0164Y0425
X01695Y0432
Y0443
X01525Y0445
X01445
X01485Y044
X01475Y0463
X01575
X0165Y04685
X0177Y04715
X0181Y04655
X01865Y0405
X01985Y0407
X018Y03845
X01295Y03915
X01325Y04045
X0136Y04075
X01125Y0423
X01115Y04385
Y04485
X01195Y0443
X0113Y04655
X0095
X0085
X0072Y047
X00685Y0454
X00675Y0443
X0082Y0423
X0075Y0405
X0035Y04125
X00355Y0424
X00225Y0423
X0017Y04195
X0014Y04375
X00315Y0441
T03
X00325Y0255
Y0265
Y0275
Y0285
Y0295
Y0305
Y0315
Y0325
Y0335
Y0345
Y0355
Y0365
X02825
Y0355
Y0345
Y0335
Y0325
Y0315
Y0305
Y0295
Y0285
Y0275
Y0265
Y0255
X03425Y045
X03525
X03625
T04
X03775Y03025
Y03125
X03875
X03975
X04075
Y03025
X03975
X03875
X04175
Y03125
X04275
X04375
X04475
X04575
X04675
Y03025
X04575
X04475
X04375
X04275
T05
X02275Y04325
X0247185
T06
X0335Y027
Y02875
Y0305
Y03225
Y034
M30
